<?xml version="1.0" encoding="UTF-8" standalone="no"?><!DOCTYPE svg PUBLIC "-//W3C//DTD SVG 1.1//EN" "http://www.w3.org/Graphics/SVG/1.1/DTD/svg11.dtd"><!-- Generated by graphviz version 2.40.1 (20161225.0304)
 --><!-- Title: G Pages: 1 --><svg xmlns="http://www.w3.org/2000/svg" xmlns:xlink="http://www.w3.org/1999/xlink" width="640pt" height="333pt" viewBox="0.00 0.00 640.00 333.40">
<g id="graph0" class="graph" transform="scale(1 1) rotate(0) translate(4 329.4)">
<title>G</title>
<polygon fill="#ffffff" stroke="transparent" points="-4,4 -4,-329.4 636,-329.4 636,4 -4,4"/>
<g id="clust2" class="cluster">
<title>cluster_0</title>
<polygon fill="none" stroke="transparent" points="8,-8 8,-84.8 624,-84.8 624,-8 8,-8"/>
<text text-anchor="middle" x="316" y="-68.2" font-family="Times,serif" font-size="14.00" fill="#000000">determined by</text>
</g>
<!-- scopes -->
<g id="node1" class="node">
<title>scopes</title>
<ellipse fill="none" stroke="#000000" cx="99" cy="-218.6" rx="36.5575" ry="18"/>
<text text-anchor="middle" x="99" y="-214.4" font-family="Times,serif" font-size="14.00" fill="#000000">scopes</text>
</g>
<!-- permissions -->
<g id="node2" class="node">
<title>permissions</title>
<ellipse fill="none" stroke="#000000" cx="273" cy="-218.6" rx="57.3398" ry="18"/>
<text text-anchor="middle" x="273" y="-214.4" font-family="Times,serif" font-size="14.00" fill="#000000">permissions</text>
</g>
<!-- scopes&#45;&gt;permissions -->
<g id="edge3" class="edge">
<title>scopes-&gt;permissions</title>
<path fill="none" stroke="#000000" d="M135.9009,-218.6C156.1518,-218.6 181.8963,-218.6 205.5948,-218.6"/>
<polygon fill="#000000" stroke="#000000" points="205.604,-222.1001 215.604,-218.6 205.604,-215.1001 205.604,-222.1001"/>
<text text-anchor="middle" x="175.8042" y="-225.8" font-family="Times,serif" font-size="14.00" fill="#000000">guarded by</text>
</g>
<!-- HTTP method -->
<g id="node4" class="node">
<title>HTTP method</title>
<ellipse fill="none" stroke="#000000" cx="99" cy="-129.8" rx="66.6144" ry="18"/>
<text text-anchor="middle" x="99" y="-125.6" font-family="Times,serif" font-size="14.00" fill="#000000">HTTP method</text>
</g>
<!-- scopes&#45;&gt;HTTP method -->
<g id="edge4" class="edge">
<title>scopes-&gt;HTTP method</title>
<path fill="none" stroke="#000000" d="M99,-200.2006C99,-188.0949 99,-172.0076 99,-158.2674"/>
<polygon fill="#000000" stroke="#000000" points="102.5001,-157.872 99,-147.872 95.5001,-157.8721 102.5001,-157.872"/>
<text text-anchor="middle" x="128.7402" y="-170" font-family="Times,serif" font-size="14.00" fill="#000000">granted by</text>
</g>
<!-- policies -->
<g id="node5" class="node">
<title>policies</title>
<ellipse fill="none" stroke="#000000" cx="273" cy="-129.8" rx="41.1471" ry="18"/>
<text text-anchor="middle" x="273" y="-125.6" font-family="Times,serif" font-size="14.00" fill="#000000">policies</text>
</g>
<!-- permissions&#45;&gt;policies -->
<g id="edge5" class="edge">
<title>permissions-&gt;policies</title>
<path fill="none" stroke="#000000" d="M273,-200.2006C273,-188.0949 273,-172.0076 273,-158.2674"/>
<polygon fill="#000000" stroke="#000000" points="276.5001,-157.872 273,-147.872 269.5001,-157.8721 276.5001,-157.872"/>
<text text-anchor="middle" x="302.7402" y="-170" font-family="Times,serif" font-size="14.00" fill="#000000">granted by</text>
</g>
<!-- resources -->
<g id="node3" class="node">
<title>resources</title>
<ellipse fill="none" stroke="#000000" cx="186" cy="-307.4" rx="47.4887" ry="18"/>
<text text-anchor="middle" x="186" y="-303.2" font-family="Times,serif" font-size="14.00" fill="#000000">resources</text>
</g>
<!-- resources&#45;&gt;scopes -->
<g id="edge1" class="edge">
<title>resources-&gt;scopes</title>
<path fill="none" stroke="#000000" d="M169.2255,-290.2785C155.9384,-276.7164 137.2198,-257.6105 122.4492,-242.5344"/>
<polygon fill="#000000" stroke="#000000" points="124.6331,-239.7622 115.1347,-235.0685 119.633,-244.6611 124.6331,-239.7622"/>
<text text-anchor="middle" x="182.2949" y="-258.8" font-family="Times,serif" font-size="14.00" fill="#000000">guarded by</text>
</g>
<!-- resources&#45;&gt;permissions -->
<g id="edge2" class="edge">
<title>resources-&gt;permissions</title>
<path fill="none" stroke="#000000" d="M202.7745,-290.2785C215.8093,-276.9739 234.0714,-258.3341 248.7052,-243.3974"/>
<polygon fill="#000000" stroke="#000000" points="251.4819,-245.5645 255.9802,-235.972 246.4818,-240.6657 251.4819,-245.5645"/>
<text text-anchor="middle" x="268.2949" y="-258.8" font-family="Times,serif" font-size="14.00" fill="#000000">guarded by</text>
</g>
<!-- role -->
<g id="node6" class="node">
<title>role</title>
<ellipse fill="none" stroke="#000000" cx="43" cy="-34" rx="27" ry="18"/>
<text text-anchor="middle" x="43" y="-29.8" font-family="Times,serif" font-size="14.00" fill="#000000">role</text>
</g>
<!-- policies&#45;&gt;role -->
<g id="edge6" class="edge">
<title>policies-&gt;role</title>
<path fill="none" stroke="#000000" d="M235.2734,-122.5492C182.5811,-112.1954 91.9187,-93.4705 79,-84.8 69.8451,-78.6556 62.2704,-69.3429 56.4701,-60.3621"/>
<polygon fill="#000000" stroke="#000000" points="59.3902,-58.425 51.2684,-51.6215 53.3748,-62.0049 59.3902,-58.425"/>
</g>
<!-- time -->
<g id="node7" class="node">
<title>time</title>
<ellipse fill="none" stroke="#000000" cx="116" cy="-34" rx="28.4069" ry="18"/>
<text text-anchor="middle" x="116" y="-29.8" font-family="Times,serif" font-size="14.00" fill="#000000">time</text>
</g>
<!-- policies&#45;&gt;time -->
<g id="edge7" class="edge">
<title>policies-&gt;time</title>
<path fill="none" stroke="#000000" d="M236.2539,-121.6864C211.2705,-114.8551 178.4447,-103.1925 154,-84.8 145.0231,-78.0456 137.167,-68.609 130.9638,-59.6999"/>
<polygon fill="#000000" stroke="#000000" points="133.7332,-57.5397 125.3312,-51.0854 127.8744,-61.3705 133.7332,-57.5397"/>
</g>
<!-- client -->
<g id="node8" class="node">
<title>client</title>
<ellipse fill="none" stroke="#000000" cx="195" cy="-34" rx="32.4788" ry="18"/>
<text text-anchor="middle" x="195" y="-29.8" font-family="Times,serif" font-size="14.00" fill="#000000">client</text>
</g>
<!-- policies&#45;&gt;client -->
<g id="edge8" class="edge">
<title>policies-&gt;client</title>
<path fill="none" stroke="#000000" d="M259.0552,-112.6729C246.7789,-97.5951 228.7588,-75.4627 214.9562,-58.5103"/>
<polygon fill="#000000" stroke="#000000" points="217.5909,-56.2029 208.5629,-50.658 212.1626,-60.6226 217.5909,-56.2029"/>
</g>
<!-- user -->
<g id="node9" class="node">
<title>user</title>
<ellipse fill="none" stroke="#000000" cx="273" cy="-34" rx="27.2447" ry="18"/>
<text text-anchor="middle" x="273" y="-29.8" font-family="Times,serif" font-size="14.00" fill="#000000">user</text>
</g>
<!-- policies&#45;&gt;user -->
<g id="edge9" class="edge">
<title>policies-&gt;user</title>
<path fill="none" stroke="#000000" d="M273,-111.7808C273,-97.9527 273,-78.593 273,-62.6477"/>
<polygon fill="#000000" stroke="#000000" points="276.5001,-62.2641 273,-52.2642 269.5001,-62.2642 276.5001,-62.2641"/>
</g>
<!-- group -->
<g id="node10" class="node">
<title>group</title>
<ellipse fill="none" stroke="#000000" cx="352" cy="-34" rx="33.6305" ry="18"/>
<text text-anchor="middle" x="352" y="-29.8" font-family="Times,serif" font-size="14.00" fill="#000000">group</text>
</g>
<!-- policies&#45;&gt;group -->
<g id="edge10" class="edge">
<title>policies-&gt;group</title>
<path fill="none" stroke="#000000" d="M287.1236,-112.6729C299.5573,-97.5951 317.8084,-75.4627 331.7879,-58.5103"/>
<polygon fill="#000000" stroke="#000000" points="334.6013,-60.5999 338.2632,-50.658 329.2007,-56.1464 334.6013,-60.5999"/>
</g>
<!-- javascript -->
<g id="node11" class="node">
<title>javascript</title>
<ellipse fill="none" stroke="#000000" cx="452" cy="-34" rx="48.6501" ry="18"/>
<text text-anchor="middle" x="452" y="-29.8" font-family="Times,serif" font-size="14.00" fill="#000000">javascript</text>
</g>
<!-- policies&#45;&gt;javascript -->
<g id="edge11" class="edge">
<title>policies-&gt;javascript</title>
<path fill="none" stroke="#000000" d="M308.486,-120.5549C333.7133,-113.0858 367.8055,-101.1255 395,-84.8 407.0166,-77.5861 418.8305,-67.6653 428.5593,-58.5042"/>
<polygon fill="#000000" stroke="#000000" points="431.1496,-60.8673 435.8785,-51.3864 426.2693,-55.849 431.1496,-60.8673"/>
</g>
<!-- aggregate -->
<g id="node12" class="node">
<title>aggregate</title>
<ellipse fill="none" stroke="#000000" cx="567" cy="-34" rx="48.6346" ry="18"/>
<text text-anchor="middle" x="567" y="-29.8" font-family="Times,serif" font-size="14.00" fill="#000000">aggregate</text>
</g>
<!-- policies&#45;&gt;aggregate -->
<g id="edge12" class="edge">
<title>policies-&gt;aggregate</title>
<path fill="none" stroke="#000000" d="M312.8703,-124.8528C371.0264,-117.1966 475.9066,-101.5979 510,-84.8 523.076,-78.3574 535.436,-68.0759 545.2823,-58.4424"/>
<polygon fill="#000000" stroke="#000000" points="547.8014,-60.8724 552.292,-51.2763 542.7973,-55.9775 547.8014,-60.8724"/>
</g>
</g>
</svg>